<?xml version="1.0" standalone="no"?>
<!DOCTYPE svg PUBLIC "-//W3C//DTD SVG 20010904//EN"
 "http://www.w3.org/TR/2001/REC-SVG-20010904/DTD/svg10.dtd">
<svg version="1.0" xmlns="http://www.w3.org/2000/svg"
 width="260.000000pt" height="260.000000pt" viewBox="0 0 260.000000 260.000000"
 preserveAspectRatio="xMidYMid meet">
<metadata>
Created by potrace 1.11, written by Peter Selinger 2001-2013
</metadata>
<g transform="translate(0.000000,260.000000) scale(0.100000,-0.100000)"
fill="#000000" stroke="none">
<path d="M0 1300 l0 -1300 1300 0 1300 0 0 1300 0 1300 -1300 0 -1300 0 0
-1300z m1375 1071 c22 -10 51 -30 64 -44 30 -33 50 -108 45 -167 -2 -25 -24
-234 -49 -465 -57 -540 -75 -714 -75 -731 0 -10 -16 -14 -58 -14 l-57 0 -18
197 c-9 109 -35 365 -57 568 -48 430 -52 525 -27 572 47 88 146 124 232 84z
m8 -1695 c71 -29 127 -129 111 -199 -25 -120 -130 -188 -242 -158 -171 47
-189 280 -27 356 38 18 116 19 158 1z"/>
</g>
</svg>
